<svg width="45" height="45" viewBox="0 0 45 45" fill="none" xmlns="http://www.w3.org/2000/svg">
<path d="M4.5 3.5H23C32.665 3.5 40.5 11.335 40.5 21V24C40.5 33.665 32.665 41.5 23 41.5H4.5V3.5Z" stroke="#4F45E4" stroke-width="5"/>
<path d="M32.6034 22.7369C32.6034 24.3643 32.3201 25.8681 31.7536 27.2483C31.1974 28.6182 30.4095 29.8079 29.3898 30.8173C28.3701 31.8164 27.1392 32.5992 25.6972 33.1657C24.2655 33.7219 22.6742 34 20.9232 34H12.1785V11.4894H20.9232C22.6742 11.4894 24.2655 11.7726 25.6972 12.3391C27.1392 12.9056 28.3701 13.6884 29.3898 14.6875C30.4095 15.6866 31.1974 16.8762 31.7536 18.2564C32.3201 19.6263 32.6034 21.1198 32.6034 22.7369ZM27.2577 22.7369C27.2577 21.6245 27.1135 20.6203 26.8251 19.7242C26.5367 18.8281 26.1195 18.071 25.5736 17.453C25.038 16.8247 24.3788 16.3458 23.596 16.0162C22.8132 15.6763 21.9223 15.5063 20.9232 15.5063H17.4315V29.983H20.9232C21.9223 29.983 22.8132 29.8182 23.596 29.4886C24.3788 29.1487 25.038 28.6697 25.5736 28.0517C26.1195 27.4234 26.5367 26.6612 26.8251 25.7651C27.1135 24.869 27.2577 23.8596 27.2577 22.7369Z" fill="#4F45E4"/>
</svg>
