<svg width="157" height="43" viewBox="0 0 157 43" fill="none" xmlns="http://www.w3.org/2000/svg">
<g clip-path="url(#clip0_1_11)">
<path d="M4.5 2.5H23C32.665 2.5 40.5 10.335 40.5 20V23C40.5 32.665 32.665 40.5 23 40.5H4.5V2.5Z" stroke="#4F45E4" stroke-width="5"/>
<path d="M53.4315 14.5063V19.7593H60.5076V23.6218H53.4315V28.983H62.6705V33H48.1785V10.4894H62.6705V14.5063H53.4315ZM89.1748 10.4894L80.152 33H75.4243L66.4015 10.4894H70.6039C71.0571 10.4894 71.4227 10.5975 71.7008 10.8138C71.9789 11.0198 72.1901 11.2876 72.3343 11.6172L76.6912 23.6682C76.8972 24.1935 77.098 24.7703 77.2937 25.3986C77.4894 26.0166 77.6748 26.6655 77.8499 27.3453C77.9941 26.6655 78.1538 26.0166 78.3289 25.3986C78.5143 24.7703 78.71 24.1935 78.916 23.6682L83.242 11.6172C83.3553 11.3288 83.5561 11.0713 83.8445 10.8447C84.1432 10.6078 84.5089 10.4894 84.9415 10.4894H89.1748ZM110.216 14.63H103.881V33H98.6591V14.63H92.3246V10.4894H110.216V14.63ZM121.212 33H115.959V10.4894H121.212V33ZM153.952 10.4894V33H149.348V20.0529C149.348 19.7542 149.353 19.4297 149.364 19.0795C149.384 18.7293 149.415 18.374 149.456 18.0135L143.477 29.5855C143.292 29.946 143.039 30.219 142.72 30.4044C142.411 30.5898 142.056 30.6825 141.654 30.6825H140.943C140.542 30.6825 140.181 30.5898 139.862 30.4044C139.553 30.219 139.306 29.946 139.12 29.5855L133.141 17.9826C133.172 18.3534 133.198 18.719 133.218 19.0795C133.239 19.4297 133.249 19.7542 133.249 20.0529V33H128.645V10.4894H132.631C132.858 10.4894 133.054 10.4945 133.218 10.5048C133.393 10.5151 133.548 10.546 133.682 10.5975C133.816 10.649 133.934 10.7314 134.037 10.8447C134.151 10.9477 134.259 11.097 134.362 11.2927L140.155 22.7103C140.361 23.1017 140.557 23.5085 140.743 23.9308C140.938 24.3532 141.124 24.7857 141.299 25.2286C141.474 24.7754 141.654 24.3325 141.839 23.8999C142.035 23.4673 142.241 23.0553 142.457 22.6639L148.236 11.2927C148.339 11.097 148.442 10.9477 148.545 10.8447C148.658 10.7314 148.782 10.649 148.916 10.5975C149.049 10.546 149.199 10.5151 149.364 10.5048C149.539 10.4945 149.74 10.4894 149.966 10.4894H153.952Z" fill="white"/>
<path d="M32.6034 21.7369C32.6034 23.3643 32.3201 24.8681 31.7536 26.2483C31.1974 27.6182 30.4095 28.8079 29.3898 29.8173C28.3701 30.8164 27.1392 31.5992 25.6972 32.1657C24.2655 32.7219 22.6742 33 20.9232 33H12.1785V10.4894H20.9232C22.6742 10.4894 24.2655 10.7726 25.6972 11.3391C27.1392 11.9056 28.3701 12.6884 29.3898 13.6875C30.4095 14.6866 31.1974 15.8762 31.7536 17.2564C32.3201 18.6263 32.6034 20.1198 32.6034 21.7369ZM27.2577 21.7369C27.2577 20.6245 27.1135 19.6203 26.8251 18.7242C26.5367 17.8281 26.1195 17.071 25.5736 16.453C25.038 15.8247 24.3788 15.3458 23.596 15.0162C22.8132 14.6763 21.9223 14.5063 20.9232 14.5063H17.4315V28.983H20.9232C21.9223 28.983 22.8132 28.8182 23.596 28.4886C24.3788 28.1487 25.038 27.6697 25.5736 27.0517C26.1195 26.4234 26.5367 25.6612 26.8251 24.7651C27.1135 23.869 27.2577 22.8596 27.2577 21.7369Z" fill="#4F45E4"/>
</g>
<defs>
<clipPath id="clip0_1_11">
<rect width="157" height="43" fill="white"/>
</clipPath>
</defs>
</svg>
